<?xml version="1.0" encoding="UTF-8" standalone="no"?>
<!DOCTYPE svg PUBLIC "-//W3C//DTD SVG 1.1//EN" "http://www.w3.org/Graphics/SVG/1.1/DTD/svg11.dtd">
<svg width="100%" height="100%" viewBox="0 0 1247 204" version="1.1" xmlns="http://www.w3.org/2000/svg" xmlns:xlink="http://www.w3.org/1999/xlink" xml:space="preserve" xmlns:serif="http://www.serif.com/" style="fill-rule:evenodd;clip-rule:evenodd;stroke-linejoin:round;stroke-miterlimit:2;">
    <g transform="matrix(1,0,0,1,-362.015,-416.536)">
        <g transform="matrix(1,0,-0.500167,0.866,282.776,26.5144)">
            <g>
                <g transform="matrix(0.577245,-0.577367,1.00018,1.00003,-107.246,636.802)">
                    <path d="M441.68,244.972L441.68,301.631L508.067,339.924L508.149,283.312L441.68,244.972Z" style="fill:rgb(201,198,206);"/>
                </g>
                <g transform="matrix(0.577245,-0.577367,1.00018,1.00003,-107.246,636.802)">
                    <path d="M508.149,283.312L529.89,270.952L688.162,239.087L688.162,296.78C674.673,347.38 568.66,352.873 529.818,327.393L508.149,339.924L508.149,283.312Z" style="fill:rgb(179,176,184);"/>
                </g>
                <g id="P" transform="matrix(1,0,1.11022e-16,1,373.09,-1.40551)">
                    <g transform="matrix(0.720453,0,0,0.720453,-375.245,112.014)">
                        <circle cx="655.776" cy="576.597" r="105" style="fill:white;"/>
                    </g>
                    <g transform="matrix(0.369722,0,0,0.362479,-197.557,347.793)">
                        <rect x="587.583" y="286.869" width="207.145" height="486.775" style="fill:white;"/>
                    </g>
                </g>
            </g>
            <g transform="matrix(1,-2.66454e-15,1.22125e-15,1,-620.774,2.95586e-12)">
                <g transform="matrix(0.577245,-0.577367,1.00018,1.00003,-107.246,636.802)">
                    <path d="M1257.63,715.937L1257.63,772.549L1409.6,684.669L1409.6,628.057L1257.63,715.937Z" style="fill:rgb(179,176,184);"/>
                </g>
                <g transform="matrix(0.577245,-0.577367,1.00018,1.00003,-107.246,636.802)">
                    <path d="M1105.65,628.057L1105.65,684.669L1257.63,772.549L1257.63,715.937L1105.65,628.057Z" style="fill:rgb(201,198,206);"/>
                </g>
                <g id="A" transform="matrix(1,0,1.11022e-16,1,949.462,-1.18928)">
                    <path d="M385.148,452.21L385.148,628.007L210.006,628.007L385.148,452.21Z" style="fill:white;"/>
                </g>
            </g>
            <g>
                <g transform="matrix(0.577245,-0.577367,1.00018,1.00003,-107.246,636.802)">
                    <path d="M731.805,413.523L731.805,471.038L861.919,545.755L862.74,489.143L731.805,413.523Z" style="fill:rgb(201,198,206);"/>
                </g>
                <g transform="matrix(0.577245,-0.577367,1.00018,1.00003,-107.246,636.802)">
                    <path d="M867.634,453.471L977.262,400.931L977.262,459.255C972.888,500.683 921.414,506.526 868.152,511.018L862.74,545.755L862.74,489.143L867.634,453.471Z" style="fill:rgb(179,176,184);"/>
                </g>
                <g id="R" transform="matrix(1,0,1.11022e-16,1,332.019,-0.216232)">
                    <g transform="matrix(0.720453,0,0,0.720453,-0.0709939,111.797)">
                        <circle cx="655.776" cy="576.597" r="105" style="fill:white;"/>
                    </g>
                    <g transform="matrix(0.365191,0,0,0.362479,182.157,347.577)">
                        <rect x="587.583" y="286.869" width="207.145" height="486.775" style="fill:white;"/>
                    </g>
                    <g transform="matrix(0.857458,0,0,1,49.5227,-0.216232)">
                        <path d="M493.158,540L581.381,628.223L404.935,628.223L493.158,540Z" style="fill:white;"/>
                    </g>
                </g>
            </g>
            <g id="A1" serif:id="A" transform="matrix(1,0,0,1,328.688,-1.18928)">
                <path d="M385.148,452.21L385.148,628.007L210.006,628.007L385.148,452.21Z" style="fill:white;"/>
            </g>
            <g id="A2" serif:id="A" transform="matrix(1,0,0,1,681.75,-0.216232)">
                <path d="M385.148,452.21L385.148,628.007L210.006,628.007L385.148,452.21Z" style="fill:white;"/>
            </g>
            <g transform="matrix(1,-1.22125e-15,5.55112e-16,1,-267.712,0.973045)">
                <g transform="matrix(0.577245,-0.577367,1.00018,1.00003,-107.246,636.802)">
                    <path d="M1257.63,715.937L1257.63,772.549L1409.6,684.669L1409.6,628.057L1257.63,715.937Z" style="fill:rgb(179,176,184);"/>
                </g>
                <g transform="matrix(0.577245,-0.577367,1.00018,1.00003,-107.246,636.802)">
                    <path d="M1105.65,628.057L1105.65,684.669L1257.63,772.549L1257.63,715.937L1105.65,628.057Z" style="fill:rgb(201,198,206);"/>
                </g>
                <g id="A3" serif:id="A" transform="matrix(1,0,1.11022e-16,1,949.462,-1.18928)">
                    <path d="M385.148,452.21L385.148,628.007L210.006,628.007L385.148,452.21Z" style="fill:white;"/>
                </g>
            </g>
            <g>
                <g transform="matrix(0.577245,-0.577367,1.00018,1.00003,-107.246,636.802)">
                    <path d="M1096.74,624.192L1248.26,536.745L1248.26,593.359L1096.74,680.804L1096.74,624.192Z" style="fill:rgb(179,176,184);"/>
                </g>
                <g transform="matrix(0.577245,-0.577367,1.00018,1.00003,-107.246,636.802)">
                    <path d="M1034.38,588.286L1034.38,644.758L1096.74,680.804L1096.74,624.192L1034.38,588.286Z" style="fill:rgb(201,198,206);"/>
                </g>
                <g id="L" transform="matrix(0.408635,0,1.11022e-16,1,763.083,0.432464)">
                    <rect x="770.986" y="452.426" width="176.23" height="174.932" style="fill:white;"/>
                </g>
            </g>
            <g>
                <g transform="matrix(0.577245,-0.577367,1.00018,1.00003,-107.246,636.802)">
                    <path d="M1257.63,715.937L1257.63,772.549L1409.6,684.669L1409.6,628.057L1257.63,715.937Z" style="fill:rgb(179,176,184);"/>
                </g>
                <g transform="matrix(0.577245,-0.577367,1.00018,1.00003,-107.246,636.802)">
                    <path d="M1105.65,628.057L1105.65,684.669L1257.63,772.549L1257.63,715.937L1105.65,628.057Z" style="fill:rgb(201,198,206);"/>
                </g>
                <g id="A4" serif:id="A" transform="matrix(1,0,1.11022e-16,1,949.462,-1.18928)">
                    <path d="M385.148,452.21L385.148,628.007L210.006,628.007L385.148,452.21Z" style="fill:white;"/>
                </g>
            </g>
            <g id="X">
                <g transform="matrix(0.577245,-0.577367,1.00018,1.00003,-107.246,636.802)">
                    <path d="M1420.32,866.263L1420.32,809.961L1449.91,737.834L1573.02,721.855L1573.02,778.467L1450.22,794.397L1420.32,866.263Z" style="fill:rgb(179,176,184);"/>
                </g>
                <g transform="matrix(0.577245,-0.577367,1.00018,1.00003,-107.246,636.802)">
                    <path d="M1267.61,721.855L1267.61,778.467L1420.32,866.263L1420.32,809.961L1267.61,721.855Z" style="fill:rgb(201,198,206);"/>
                </g>
                <g transform="matrix(1,0,1.11022e-16,1,-2.70691,-2.48667)">
                    <path d="M1349.19,629.304L1525.37,629.304L1470.38,540L1525.37,452.858L1348.92,453.291L1403.69,539.568L1349.19,629.304Z" style="fill:white;"/>
                </g>
            </g>
        </g>
    </g>
</svg>
